<?xml version="1.0" encoding="utf-8"?>
<!-- Generator: Adobe Illustrator 28.1.0, SVG Export Plug-In . SVG Version: 6.00 Build 0)  -->
<svg version="1.1" id="Layer_1" xmlns="http://www.w3.org/2000/svg" xmlns:xlink="http://www.w3.org/1999/xlink" x="0px" y="0px"
	 viewBox="0 0 260.66 202.93" style="enable-background:new 0 0 260.66 202.93;" xml:space="preserve">
<style type="text/css">
	.st0{fill-rule:evenodd;clip-rule:evenodd;fill:#FFFFFF;}
	.st1{fill:#FFFFFF;}
</style>
<g>
	<path class="st0" d="M1.46,202.93h4.97v-14.95l6.42,9.75h0.13l6.49-9.85v15.05h5.04v-23.05h-5.47l-6.06,9.75l-6.06-9.75H1.46
		V202.93z M33.73,202.93h5.07v-23.05h-5.07V202.93z M48.02,202.93h16.56v-4.61H53.09v-18.44h-5.07V202.93z M71.86,202.93h16.56
		v-4.61H76.93v-18.44h-5.07V202.93z M95.93,202.93H101v-23.05h-5.07V202.93z M110.22,202.93h4.97v-14.95l6.42,9.75h0.13l6.49-9.85
		v15.05h5.04v-23.05h-5.47l-6.06,9.75l-6.06-9.75h-5.47V202.93z M142.25,202.93h17.55v-4.51h-12.51v-4.84h10.87v-4.51h-10.87v-4.67
		h12.35v-4.51h-17.39V202.93z M173.14,202.93h5.07v-18.37h7.01v-4.67h-19.1v4.67h7.01V202.93z M192.56,202.93h5.07v-7.37h3.98
		l4.94,7.37h5.93l-5.63-8.23c2.93-1.09,4.94-3.42,4.94-7.14v-0.07c0-2.21-0.66-3.95-1.98-5.27c-1.55-1.55-3.79-2.34-6.72-2.34
		h-10.54V202.93z M197.63,191.08v-6.62h5.04c2.5,0,3.99,1.09,3.99,3.29v0.06c0,1.98-1.38,3.26-3.89,3.26H197.63z M219.83,202.93
		h17.55v-4.51h-12.51v-4.84h10.87v-4.51h-10.87v-4.67h12.35v-4.51h-17.38V202.93z"/>
	<rect x="1.46" class="st0" width="8.93" height="162.06"/>
	<rect x="228.26" class="st0" width="8.93" height="162.06"/>
	<rect x="114.86" class="st0" width="8.93" height="117.86"/>
	<rect x="27.36" class="st0" width="4.9" height="71.11"/>
	<rect x="49.24" class="st0" width="4.9" height="71.11"/>
	<rect x="71.11" class="st0" width="4.9" height="71.11"/>
	<rect x="92.99" class="st0" width="4.9" height="71.11"/>
	<rect x="140.76" class="st0" width="4.9" height="71.11"/>
	<rect x="162.64" class="st0" width="4.9" height="71.11"/>
	<rect x="184.51" class="st0" width="4.9" height="71.11"/>
	<rect x="206.39" class="st0" width="4.9" height="71.11"/>
	<rect x="1.46" class="st0" width="8.93" height="162.06"/>
	<polygon class="st0" points="27.29,158.84 42.51,158.84 42.51,113.05 62.18,142.91 62.58,142.91 82.45,112.75 82.45,158.84 
		97.88,158.84 97.88,88.24 81.14,88.24 62.58,118.1 44.03,88.24 27.29,88.24 	"/>
	<polygon class="st0" points="140.76,158.84 155.99,158.84 155.99,113.05 175.65,142.91 176.06,142.91 195.92,112.75 195.92,158.84 
		211.35,158.84 211.35,88.24 194.61,88.24 176.06,118.1 157.5,88.24 140.76,88.24 	"/>
	<path class="st1" d="M251.61,17.67c-4.99,0-9.05-4.06-9.05-9.05c0-4.99,4.06-9.05,9.05-9.05c4.99,0,9.05,4.06,9.05,9.05
		C260.66,13.61,256.6,17.67,251.61,17.67 M251.61,0.9c-4.26,0-7.72,3.46-7.72,7.72s3.46,7.72,7.72,7.72c4.26,0,7.72-3.46,7.72-7.72
		S255.87,0.9,251.61,0.9"/>
	<path class="st1" d="M249.07,4.2c0.58-0.1,1.45-0.18,2.34-0.18c1.22,0,2.05,0.2,2.62,0.68c0.47,0.39,0.73,0.98,0.73,1.7
		c0,1.1-0.74,1.84-1.54,2.13v0.04c0.6,0.23,0.97,0.82,1.18,1.64c0.26,1.06,0.49,2.04,0.67,2.37h-1.6c-0.13-0.25-0.33-0.94-0.57-2
		c-0.24-1.11-0.64-1.46-1.52-1.48h-0.78v3.48h-1.54V4.2z M250.61,7.95h0.92c1.04,0,1.7-0.55,1.7-1.4c0-0.93-0.65-1.36-1.66-1.36
		c-0.49,0-0.81,0.04-0.96,0.08V7.95z"/>
</g>
</svg>
