<?xml version="1.0" encoding="utf-8"?>
<!-- Generator: Adobe Illustrator 26.0.1, SVG Export Plug-In . SVG Version: 6.00 Build 0)  -->
<svg version="1.1" id="Layer_1" xmlns="http://www.w3.org/2000/svg" xmlns:xlink="http://www.w3.org/1999/xlink" x="0px" y="0px"
	 viewBox="0 0 74 18" style="enable-background:new 0 0 74 18;" xml:space="preserve">
<style type="text/css">
	.st0{fill:#000000;}
	.st1{fill:#6D6F70;}
</style>
<g>
	<g>
		<path class="st0" d="M10.24,7.26C9.86,6.88,9.4,6.7,8.87,6.73c-0.53,0.03-1,0.25-1.41,0.65L5.88,8.97l2.67,2.67l1.57-1.57
			c0.42-0.42,0.64-0.89,0.67-1.42C10.81,8.11,10.63,7.65,10.24,7.26"/>
		<path class="st0" d="M17.07,8.99c0,0,0-0.01,0-0.01c0-0.07,0-0.14-0.01-0.21c0-0.07,0-0.14-0.01-0.21c0-0.07-0.01-0.14-0.02-0.21
			c-0.01-0.07-0.01-0.15-0.02-0.22c-0.01-0.07-0.02-0.13-0.03-0.2c-0.01-0.07-0.02-0.15-0.03-0.22c-0.01-0.07-0.02-0.13-0.04-0.2
			c-0.01-0.07-0.02-0.14-0.04-0.21c-0.01-0.07-0.03-0.13-0.05-0.2c-0.02-0.07-0.03-0.14-0.05-0.21c-0.02-0.07-0.04-0.13-0.06-0.2
			c-0.02-0.07-0.04-0.14-0.06-0.2c-0.02-0.07-0.04-0.13-0.07-0.2c-0.02-0.07-0.04-0.13-0.07-0.2c-0.02-0.07-0.05-0.13-0.08-0.2
			c-0.02-0.06-0.05-0.12-0.07-0.18c-0.03-0.07-0.06-0.13-0.09-0.2c-0.03-0.06-0.05-0.12-0.08-0.18c-0.03-0.06-0.06-0.13-0.1-0.19
			c-0.03-0.06-0.06-0.12-0.09-0.17c-0.03-0.06-0.07-0.12-0.11-0.18c-0.03-0.06-0.06-0.11-0.1-0.17c-0.04-0.06-0.08-0.12-0.11-0.18
			c-0.03-0.05-0.07-0.11-0.1-0.16c-0.04-0.06-0.08-0.12-0.12-0.17C15.47,4.06,15.43,4,15.39,3.95c-0.04-0.06-0.09-0.11-0.13-0.17
			c-0.04-0.05-0.08-0.1-0.12-0.15c-0.04-0.05-0.09-0.1-0.13-0.16c-0.04-0.05-0.09-0.1-0.13-0.15c-0.05-0.05-0.09-0.1-0.14-0.15
			c-0.05-0.05-0.09-0.1-0.14-0.14c-0.05-0.05-0.1-0.09-0.15-0.14c-0.05-0.05-0.1-0.09-0.15-0.14c-0.05-0.04-0.1-0.09-0.15-0.13
			C14.1,2.58,14.05,2.54,14,2.49c-0.05-0.04-0.1-0.08-0.15-0.12c-0.06-0.04-0.11-0.09-0.17-0.13c-0.05-0.04-0.1-0.07-0.16-0.11
			c-0.06-0.04-0.11-0.08-0.17-0.12c-0.05-0.04-0.11-0.07-0.16-0.1c-0.06-0.04-0.12-0.08-0.18-0.11c-0.06-0.03-0.11-0.07-0.17-0.1
			c-0.06-0.03-0.12-0.07-0.18-0.1c-0.06-0.03-0.12-0.06-0.18-0.09c-0.06-0.03-0.12-0.06-0.19-0.09c-0.06-0.03-0.12-0.06-0.18-0.08
			c-0.06-0.03-0.13-0.06-0.19-0.09c-0.06-0.03-0.13-0.05-0.19-0.07c-0.06-0.03-0.13-0.05-0.19-0.08c-0.06-0.02-0.13-0.04-0.19-0.07
			c-0.07-0.02-0.13-0.05-0.2-0.07c-0.07-0.02-0.13-0.04-0.2-0.06c-0.07-0.02-0.13-0.04-0.2-0.06c-0.07-0.02-0.14-0.03-0.21-0.05
			c-0.07-0.02-0.13-0.03-0.2-0.05c-0.07-0.01-0.14-0.03-0.22-0.04c-0.07-0.01-0.13-0.02-0.2-0.03C9.85,0.66,9.77,0.65,9.7,0.64
			C9.63,0.63,9.57,0.62,9.5,0.62C9.43,0.61,9.35,0.61,9.28,0.6C9.21,0.6,9.14,0.59,9.07,0.59c-0.07,0-0.15,0-0.22-0.01
			c-0.07,0-0.13-0.01-0.2-0.01c0,0-0.01,0-0.01,0c0,0-0.01,0-0.01,0c-0.06,0-0.13,0-0.19,0c-0.07,0-0.14,0-0.21,0.01
			C8.16,0.59,8.1,0.6,8.03,0.6C7.96,0.61,7.89,0.61,7.82,0.62C7.76,0.62,7.69,0.63,7.63,0.64C7.56,0.65,7.49,0.65,7.42,0.66
			C7.36,0.67,7.29,0.69,7.23,0.7C7.16,0.71,7.09,0.72,7.02,0.73C6.96,0.74,6.9,0.76,6.84,0.77C6.77,0.79,6.7,0.8,6.64,0.82
			C6.57,0.83,6.51,0.85,6.45,0.87C6.38,0.89,6.32,0.9,6.26,0.92C6.19,0.94,6.13,0.96,6.07,0.98C6.01,1,5.94,1.02,5.88,1.04
			C5.82,1.06,5.76,1.09,5.7,1.11C5.64,1.13,5.57,1.15,5.52,1.18C5.45,1.2,5.39,1.23,5.33,1.26C5.27,1.28,5.21,1.3,5.16,1.33
			C5.1,1.36,5.04,1.39,4.97,1.42C4.92,1.45,4.86,1.47,4.81,1.5C4.75,1.53,4.69,1.56,4.63,1.6C4.58,1.63,4.52,1.65,4.47,1.68
			c-0.06,0.03-0.12,0.07-0.17,0.1C4.24,1.82,4.19,1.85,4.14,1.88C4.08,1.92,4.03,1.96,3.97,2c-0.05,0.03-0.1,0.07-0.15,0.1
			C3.76,2.14,3.71,2.18,3.65,2.22c-0.05,0.04-0.1,0.07-0.15,0.11C3.46,2.37,3.4,2.41,3.35,2.45C3.3,2.49,3.26,2.53,3.21,2.57
			C3.16,2.61,3.11,2.65,3.06,2.7C3.02,2.74,2.97,2.78,2.92,2.82C2.88,2.86,2.83,2.91,2.78,2.96C2.74,3,2.69,3.04,2.65,3.09
			C2.6,3.13,2.56,3.18,2.52,3.23C2.47,3.27,2.43,3.32,2.38,3.37C2.34,3.41,2.3,3.46,2.26,3.51c-0.04,0.05-0.08,0.1-0.13,0.15
			c-0.04,0.05-0.08,0.1-0.12,0.15C1.98,3.86,1.94,3.91,1.9,3.96c-0.04,0.05-0.07,0.1-0.11,0.16c-0.04,0.05-0.08,0.1-0.11,0.16
			c-0.04,0.05-0.07,0.1-0.1,0.16C1.54,4.49,1.5,4.54,1.46,4.6C1.43,4.65,1.4,4.71,1.37,4.76C1.34,4.82,1.3,4.87,1.27,4.93
			C1.24,4.99,1.21,5.04,1.18,5.1C1.15,5.16,1.12,5.21,1.09,5.27C1.06,5.33,1.04,5.39,1.01,5.45C0.98,5.51,0.95,5.57,0.93,5.63
			C0.9,5.68,0.88,5.74,0.85,5.8C0.83,5.86,0.8,5.92,0.78,5.99C0.76,6.05,0.73,6.11,0.71,6.17C0.69,6.23,0.67,6.29,0.65,6.35
			C0.63,6.42,0.61,6.48,0.59,6.55C0.57,6.61,0.55,6.67,0.53,6.73C0.51,6.8,0.5,6.87,0.48,6.93C0.47,6.99,0.45,7.05,0.44,7.11
			C0.42,7.18,0.41,7.25,0.39,7.32C0.38,7.38,0.37,7.44,0.36,7.5C0.34,7.57,0.33,7.64,0.32,7.72C0.31,7.78,0.3,7.84,0.3,7.9
			C0.29,7.97,0.28,8.04,0.27,8.12C0.27,8.18,0.26,8.23,0.25,8.29l4.62-4.62C6.11,2.44,7.6,1.8,9.29,1.78
			c1.71-0.02,3.23,0.62,4.52,1.91c1.32,1.32,1.97,2.85,1.94,4.55c-0.03,1.68-0.68,3.17-1.94,4.44l-0.86,0.86l1.54,1.54
			c0,0,0.01-0.01,0.01-0.01c0,0,0,0,0.01-0.01c0.05-0.05,0.09-0.1,0.14-0.14c0.05-0.05,0.1-0.09,0.14-0.14
			c0.05-0.05,0.09-0.1,0.14-0.16c0.05-0.05,0.09-0.1,0.14-0.15c0.04-0.05,0.09-0.11,0.13-0.16c0.04-0.05,0.09-0.11,0.13-0.16
			c0.04-0.05,0.08-0.11,0.12-0.16c0.04-0.06,0.08-0.11,0.13-0.17c0.04-0.06,0.07-0.11,0.11-0.17c0.04-0.06,0.08-0.12,0.12-0.18
			c0.04-0.06,0.07-0.12,0.1-0.17c0.04-0.06,0.07-0.12,0.11-0.19c0.03-0.06,0.06-0.12,0.09-0.18c0.03-0.06,0.07-0.13,0.1-0.19
			c0.03-0.06,0.06-0.13,0.09-0.19c0.03-0.06,0.06-0.13,0.09-0.19c0.03-0.06,0.05-0.13,0.08-0.2c0.03-0.06,0.05-0.13,0.08-0.19
			c0.03-0.07,0.05-0.14,0.07-0.2c0.02-0.07,0.05-0.13,0.07-0.2c0.02-0.07,0.04-0.14,0.06-0.21c0.02-0.07,0.04-0.13,0.06-0.2
			c0.02-0.07,0.03-0.14,0.05-0.22c0.02-0.07,0.03-0.13,0.05-0.2c0.02-0.07,0.03-0.15,0.04-0.22c0.01-0.07,0.03-0.13,0.04-0.2
			c0.01-0.08,0.02-0.15,0.03-0.23c0.01-0.07,0.02-0.13,0.03-0.2c0.01-0.08,0.01-0.16,0.02-0.23c0.01-0.07,0.01-0.14,0.02-0.2
			c0-0.08,0-0.15,0.01-0.23c0-0.07,0.01-0.13,0.01-0.2C17.07,9,17.07,8.99,17.07,8.99"/>
		<path class="st0" d="M13.13,11.99c1.08-1.08,1.64-2.35,1.66-3.77c0.02-1.43-0.54-2.72-1.66-3.85c-1.09-1.09-2.38-1.64-3.82-1.63
			c-1.43,0.02-2.7,0.56-3.75,1.61L0.25,9.67c0,0,0,0.01,0,0.01c0,0,0,0.01,0,0.01c0,0.06,0.01,0.12,0.02,0.18
			c0.01,0.07,0.01,0.14,0.02,0.21c0.01,0.06,0.02,0.13,0.03,0.19c0.01,0.07,0.02,0.14,0.03,0.21c0.01,0.06,0.03,0.13,0.04,0.19
			c0.01,0.07,0.03,0.14,0.04,0.2c0.01,0.06,0.03,0.13,0.05,0.19c0.02,0.07,0.03,0.13,0.05,0.2c0.02,0.06,0.04,0.12,0.06,0.19
			c0.02,0.06,0.04,0.13,0.06,0.19c0.02,0.06,0.04,0.13,0.07,0.19c0.02,0.06,0.04,0.12,0.06,0.18c0.02,0.06,0.05,0.12,0.08,0.19
			c0.02,0.06,0.05,0.12,0.07,0.18c0.03,0.06,0.06,0.12,0.08,0.18c0.03,0.06,0.05,0.12,0.08,0.17c0.03,0.06,0.06,0.12,0.09,0.18
			c0.03,0.05,0.06,0.11,0.09,0.16c0.03,0.06,0.07,0.12,0.1,0.18c0.03,0.05,0.06,0.11,0.09,0.16c0.04,0.06,0.07,0.11,0.11,0.17
			c0.03,0.05,0.07,0.1,0.1,0.16c0.04,0.06,0.08,0.11,0.12,0.17c0.04,0.05,0.07,0.1,0.11,0.15c0.04,0.05,0.08,0.11,0.13,0.16
			c0.04,0.05,0.07,0.1,0.11,0.14c0.04,0.05,0.09,0.1,0.13,0.15c0.04,0.05,0.08,0.1,0.12,0.14c0.04,0.05,0.09,0.09,0.13,0.14
			c0.04,0.05,0.09,0.09,0.13,0.14c0.05,0.05,0.09,0.09,0.14,0.14c0.05,0.04,0.09,0.09,0.14,0.13c0.05,0.04,0.09,0.08,0.14,0.13
			c0.05,0.04,0.1,0.09,0.15,0.13c0.05,0.04,0.1,0.08,0.15,0.12c0.05,0.04,0.1,0.08,0.15,0.12c0.05,0.04,0.1,0.08,0.15,0.11
			c0.05,0.04,0.1,0.08,0.16,0.12c0.05,0.04,0.1,0.07,0.16,0.1c0.05,0.04,0.11,0.07,0.16,0.11c0.05,0.03,0.11,0.06,0.16,0.1
			c0.06,0.03,0.11,0.07,0.17,0.1c0.05,0.03,0.11,0.06,0.17,0.09c0.06,0.03,0.12,0.06,0.17,0.09c0.06,0.03,0.12,0.06,0.17,0.08
			c0.06,0.03,0.12,0.06,0.18,0.08c0.06,0.03,0.12,0.05,0.18,0.08c0.06,0.03,0.12,0.05,0.18,0.08c0.06,0.02,0.12,0.05,0.19,0.07
			c0.06,0.02,0.12,0.05,0.18,0.07c0.06,0.02,0.13,0.04,0.19,0.06c0.06,0.02,0.12,0.04,0.18,0.06c0.07,0.02,0.13,0.04,0.2,0.05
			c0.06,0.02,0.12,0.03,0.18,0.05c0.07,0.02,0.14,0.03,0.21,0.05c0.06,0.01,0.12,0.03,0.18,0.04c0.07,0.01,0.14,0.02,0.21,0.04
			c0.06,0.01,0.12,0.02,0.18,0.03c0.07,0.01,0.14,0.02,0.21,0.03c0.06,0.01,0.12,0.02,0.19,0.02c0.07,0.01,0.14,0.01,0.22,0.02
			c0.06,0,0.13,0.01,0.19,0.01c0.07,0,0.14,0,0.22,0.01c0.06,0,0.12,0,0.19,0c0,0,0.01,0,0.01,0c0,0,0.01,0,0.01,0
			c0.08,0,0.16,0,0.23-0.01c0.08,0,0.16,0,0.24-0.01c0.08,0,0.15-0.01,0.23-0.02c0.08-0.01,0.16-0.01,0.24-0.02L1.65,9.41l4.47-4.47
			c0.9-0.9,1.97-1.36,3.19-1.38c1.22-0.01,2.3,0.45,3.24,1.39C13.52,5.91,14,7,13.98,8.21c-0.02,1.21-0.49,2.28-1.42,3.21
			l-2.12,2.12l2.63,2.63c0,0,0.01,0,0.01-0.01c0,0,0.01,0,0.01-0.01c0.06-0.03,0.11-0.07,0.17-0.11c0.06-0.04,0.11-0.07,0.17-0.11
			c0.06-0.04,0.11-0.08,0.17-0.12c0.05-0.04,0.11-0.08,0.16-0.12l-2.17-2.17L13.13,11.99z"/>
		<path class="st0" d="M24.77,3.15c-0.52-0.51-1.15-0.76-1.91-0.76h-3.42c-0.18,0-0.33,0.15-0.33,0.33v7.5h1.62
			c0.18,0,0.33-0.15,0.33-0.33V7.8h1.77c0.78,0,1.43-0.25,1.94-0.75c0.51-0.5,0.77-1.15,0.77-1.96C25.55,4.3,25.29,3.66,24.77,3.15
			 M23.25,5.9c-0.23,0.21-0.53,0.32-0.88,0.32h-1.32V3.98h1.33c0.34,0,0.63,0.1,0.86,0.32c0.23,0.21,0.35,0.48,0.35,0.8
			C23.61,5.42,23.49,5.69,23.25,5.9"/>
		<path class="st0" d="M31.88,7.39c0.48-0.19,0.85-0.5,1.14-0.91c0.28-0.41,0.42-0.9,0.42-1.46c0-0.76-0.25-1.39-0.76-1.89
			c-0.51-0.49-1.13-0.74-1.86-0.74H27.2c-0.18,0-0.33,0.15-0.33,0.33v1.25h3.48c0.32,0,0.59,0.1,0.81,0.3
			c0.22,0.2,0.33,0.45,0.33,0.75c0,0.3-0.11,0.56-0.33,0.75c-0.22,0.2-0.5,0.3-0.84,0.3h-3.46v4.15h1.62c0.18,0,0.33-0.15,0.33-0.33
			v-2.3h1.11l1.74,2.63h2.21L31.88,7.39z"/>
		<path class="st0" d="M41.71,3.43c-0.84-0.8-1.84-1.19-3.02-1.19c-1.18,0-2.19,0.4-3.02,1.19c-0.84,0.79-1.26,1.75-1.26,2.88
			c0,1.12,0.42,2.08,1.26,2.88c0.84,0.8,1.84,1.19,3.02,1.19c1.18,0,2.18-0.4,3.02-1.19c0.84-0.8,1.26-1.75,1.26-2.88
			C42.97,5.19,42.55,4.23,41.71,3.43 M40.28,7.89c-0.44,0.44-0.97,0.66-1.59,0.66c-0.62,0-1.15-0.22-1.59-0.66
			c-0.44-0.44-0.66-0.97-0.66-1.58c0-0.62,0.22-1.14,0.66-1.58c0.44-0.44,0.97-0.66,1.59-0.66c0.62,0,1.15,0.22,1.59,0.66
			c0.44,0.44,0.66,0.97,0.66,1.58C40.94,6.92,40.72,7.45,40.28,7.89"/>
		<path class="st0" d="M46.32,8.53V2.39h-1.7c-0.18,0-0.33,0.15-0.33,0.33v7.5h5.48V8.86c0-0.18-0.15-0.33-0.33-0.33H46.32z"/>
		<path class="st0" d="M51.01,2.73v7.5h1.7c0.18,0,0.33-0.15,0.33-0.33v-7.5h-1.7C51.16,2.39,51.01,2.54,51.01,2.73"/>
		<path class="st0" d="M60.49,3.75V2.39h-5.36c-0.18,0-0.33,0.15-0.33,0.33v7.5h1.7c0.18,0,0.33-0.15,0.33-0.33V7.28h3.11
			c0.18,0,0.33-0.15,0.33-0.33V5.67h-3.45V4.09h3.32C60.34,4.09,60.49,3.94,60.49,3.75"/>
		<path class="st0" d="M61.95,2.73v7.5h1.7c0.18,0,0.33-0.15,0.33-0.33v-7.5h-1.7C62.1,2.39,61.95,2.54,61.95,2.73"/>
		<path class="st0" d="M70.82,8.18c-0.37,0.25-0.78,0.37-1.24,0.37c-0.62,0-1.15-0.22-1.59-0.66c-0.44-0.44-0.66-0.97-0.66-1.58
			c0-0.62,0.22-1.14,0.65-1.58c0.44-0.44,0.96-0.66,1.59-0.66c0.45,0,0.86,0.12,1.23,0.37c0.31,0.21,0.56,0.48,0.74,0.8
			c0.06,0.11,0.17,0.17,0.29,0.17h1.9c-0.22-0.91-0.71-1.66-1.49-2.26c-0.78-0.6-1.67-0.9-2.67-0.9c-1.18,0-2.18,0.4-3.02,1.19
			c-0.84,0.79-1.25,1.75-1.25,2.88c0,1.12,0.42,2.08,1.25,2.88c0.84,0.8,1.84,1.19,3.02,1.19c1.01,0,1.9-0.3,2.67-0.89
			c0.65-0.5,1.1-1.11,1.36-1.83c0.08-0.21-0.09-0.44-0.32-0.44h-1.66C71.47,7.62,71.2,7.94,70.82,8.18"/>
	</g>
	<g>
		<path class="st1" d="M19.14,16.59v-4.23h0.36l1.9,2.56l1.89-2.56h0.37v4.23h-0.52v-3.24l-1.64,2.24h-0.22l-1.63-2.24v3.24H19.14z"
			/>
		<path class="st1" d="M29.85,16.67c-0.62,0-1.15-0.21-1.59-0.64c-0.44-0.43-0.66-0.95-0.66-1.55c0-0.6,0.22-1.12,0.66-1.55
			c0.44-0.43,0.97-0.64,1.59-0.64c0.61,0,1.14,0.21,1.58,0.64c0.44,0.43,0.66,0.95,0.66,1.55c0,0.6-0.22,1.12-0.66,1.55
			C30.99,16.46,30.46,16.67,29.85,16.67z M28.64,15.68c0.33,0.33,0.74,0.5,1.21,0.5s0.87-0.17,1.2-0.5c0.33-0.33,0.5-0.74,0.5-1.21
			c0-0.47-0.17-0.87-0.5-1.21c-0.33-0.33-0.73-0.5-1.2-0.5s-0.87,0.17-1.21,0.5c-0.33,0.33-0.5,0.74-0.5,1.21
			C28.14,14.95,28.31,15.35,28.64,15.68z"/>
		<path class="st1" d="M38.78,12.36v0.45h-1.46v3.78h-0.54v-3.78h-1.47v-0.45H38.78z"/>
		<path class="st1" d="M42.54,16.59v-4.23h0.54v4.23H42.54z"/>
		<path class="st1" d="M49.26,16.67c-0.62,0-1.15-0.21-1.59-0.64c-0.44-0.43-0.66-0.95-0.66-1.55c0-0.6,0.22-1.12,0.66-1.55
			c0.44-0.43,0.97-0.64,1.59-0.64c0.61,0,1.14,0.21,1.58,0.64c0.44,0.43,0.66,0.95,0.66,1.55c0,0.6-0.22,1.12-0.66,1.55
			C50.4,16.46,49.87,16.67,49.26,16.67z M48.05,15.68c0.33,0.33,0.74,0.5,1.21,0.5s0.87-0.17,1.2-0.5c0.33-0.33,0.5-0.74,0.5-1.21
			c0-0.47-0.17-0.87-0.5-1.21c-0.33-0.33-0.73-0.5-1.2-0.5s-0.87,0.17-1.21,0.5c-0.33,0.33-0.5,0.74-0.5,1.21
			C47.55,14.95,47.72,15.35,48.05,15.68z"/>
		<path class="st1" d="M58.67,12.36h0.47v4.25h-0.27l-2.96-3.35v3.34h-0.47v-4.25h0.27l2.97,3.35V12.36z"/>
		<path class="st1" d="M64.73,16.67c-0.19,0-0.38-0.02-0.56-0.07c-0.18-0.04-0.34-0.11-0.5-0.21c-0.16-0.09-0.29-0.22-0.39-0.39
			c-0.1-0.16-0.16-0.36-0.18-0.58h0.53c0.02,0.19,0.1,0.35,0.23,0.47c0.13,0.12,0.27,0.2,0.41,0.24c0.14,0.04,0.29,0.06,0.45,0.06
			c0.27,0,0.49-0.06,0.68-0.17c0.19-0.11,0.28-0.29,0.28-0.53c0-0.13-0.03-0.23-0.08-0.33c-0.05-0.09-0.14-0.17-0.27-0.24
			c-0.12-0.07-0.23-0.12-0.33-0.15c-0.1-0.04-0.24-0.08-0.43-0.13c-0.45-0.14-0.8-0.29-1.03-0.46c-0.23-0.17-0.35-0.43-0.35-0.76
			c0-0.36,0.13-0.64,0.4-0.85c0.27-0.2,0.61-0.3,1.04-0.3c0.18,0,0.35,0.02,0.51,0.06c0.16,0.04,0.31,0.11,0.46,0.19
			c0.14,0.09,0.26,0.21,0.36,0.37c0.09,0.16,0.16,0.35,0.18,0.56h-0.52c-0.04-0.26-0.16-0.45-0.35-0.57
			c-0.19-0.12-0.4-0.18-0.63-0.18c-0.24,0-0.46,0.06-0.64,0.17c-0.19,0.12-0.28,0.29-0.28,0.52c0,0.1,0.02,0.18,0.06,0.26
			c0.04,0.08,0.09,0.14,0.14,0.19c0.05,0.05,0.13,0.1,0.24,0.15c0.11,0.05,0.2,0.09,0.27,0.11c0.07,0.03,0.17,0.06,0.31,0.09
			c0.47,0.14,0.79,0.26,0.95,0.35c0.34,0.2,0.51,0.5,0.51,0.91c0,0.39-0.14,0.69-0.41,0.89C65.52,16.57,65.17,16.67,64.73,16.67z"/>
	</g>
</g>
</svg>
